<svg clip-rule="evenodd" fill-rule="evenodd" height="274.776" image-rendering="optimizeQuality" shape-rendering="geometricPrecision" text-rendering="geometricPrecision" viewBox="0 0 3.98818 2.86225" width="382.86526" xmlns="http://www.w3.org/2000/svg"><g fill="#fefefe" fill-rule="nonzero"><path d="m1.04967 2.2061.560906-1.21922c.126059-.262354.37752-.348654.645126-.322335.157862.0155157.18963.00109843.261063-.153874l.210965-.45763c.020996-.0455551.075386-.0657047.120953-.0447402l.137307.0631496.00354.001626.137307.0631575c.045567.0209567.06572.0754016.04474.120953l-.217642.472118c-.075236.16322-.065563.176079.058665.30386602.190114.195547.279665.44128.151398.669244l-.241862.525724c-.048697.055835-.103969.106516-.170697.151067-.023744.015866-.049102.02948-.075693.040488-.025335.010484-.05285.018799-.082268.024638-.00623.00124-.012528.00233-.01889.0033l.360969-.784795c.00326-.00615.00519-.00989.00588-.011382v-.0008504c.081185-.176535.002-.334724-.122815-.459252-.0829818-.08279992-.1911865-.15134672-.2546865-.18527272-.0139094-.00744882-.0262205-.0135906-.0362835-.0182087-.0266535-.0122598-.0492598-.0219961-.0679252-.0292874-.0205157-.00802362-.0438937-.0162559-.0697559-.0245906l-.0180709-.00515354c-.0371535-.00849213-.075374-.0145157-.113732-.0181496-.0396772-.00377953-.0776378-.00469685-.113028-.00293307-.283976.014126-.323311.18443301-.424728.40492101l-.407366.885677c-.00326.00708-.029598.063591-.081823.175886-.07076-.048413-.129949-.105697-.181551-.168138zm1.29508.216134-.0063-.00254c-.026587-.011016-.051933-.024622-.075685-.04048-.069051-.046122-.127941-.10124-.179181-.160961.047567-.103425.094126-.20461.141654-.307965l.143638-.312287.041091-.089315-.08874-.043024c-.097905-.04748-.185461-.111378-.238417-.179811-.078047-.100874-.055067-.152366.072646-.158732.197638-.00983.420146.10763.54174.25665.047811.058598.073146.122827.041276.182453l-.39372.856016zm-.523059-.11635c-.029.026012-.060295.05052-.094445.073319-.023744.015866-.049102.02948-.075693.040488-.025335.010484-.05285.018799-.082268.024638-.027508.00545-.056394.00832-.086382.00832-.015216 0-.030138-.0007401-.044756-.00218.029591-.063705.055618-.119921.074476-.160929l.407366-.885685.00369.00484c.055071.071173.134016.137039.22328.190988l-.104441.22711c-.07361.160016-.146791.318693-.2208271.4790829z"/><path d="m.710252 2.82445c.0376339-.011661.0742598-.025945.109602-.042583.0530866-.025004.0939961-.051405.140874-.08365l.009764-.00671.009728.00671.0209803.014468c.034913.024091.071823.045665.110417.064441h.000067c.038236.018606.077941.034409.118764.047098l.00793.00247c.037571.01126.076449.019996.116409.02602.041673.00628.084461.00954.128118.00954.043555 0 .086236-.00324.127803-.00949.042693-.00641.08413-.015945.124051-.028311.037642-.011661.07426-.025945.109602-.042583.035669-.016803.070059-.036075.102909-.057567l.0000078.0000079.046689-.033287.00992.00684.021823.015035c.034937.024079.07185.045657.110417.064421.038114.018531.077732.034283.118563.046965.040008.012421.081543.021996.124319.028433.041665.00628.084453.00954.128094.00954.043551 0 .086236-.00324.127803-.00949.042693-.00641.08413-.015945.124051-.028311.037634-.011661.07426-.025945.109602-.042583.035441-.016697.069622-.035831.102283-.057161l.034795-.027791.00992-.00792.01052.00725.023831.016437c.034847.024043.071791.045642.110524.0645.038161.018571.077748.034343.118433.046988l.0002992.0000512c.040043.012433.081595.022028.124374.028472.041673.00628.084465.00955.128083.00955.043551 0 .086232-.00324.127803-.00949.042689-.00641.084138-.015945.124047-.028311.037642-.011661.074264-.025945.109606-.042583.032854-.015476.06463-.033043.09511-.05252v-.278831c-.00315.00329-.00629.0065-.00941.00962-.029091.029091-.06124.055476-.095933.078657-.034236.022866-.070929.042543-.109563.058539-.037894.015697-.077528.027819-.118406.035929-.039969.00793-.081213.012094-.12326.012094-.042051 0-.083287-.00417-.123256-.012094-.040886-.00811-.08052-.020232-.118413-.035929-.038642-.015996-.075335-.035681-.109563-.058547-.034555-.023079-.066705-.04948-.095909-.078685l-.0000315.0000354c-.011185-.011185-.02224-.023169-.033067-.035839-.010634-.012429-.020835-.025315-.030531-.038587l-.0000984-.0002953-.00133-.00183-.00309.00422c-.00953.012933-.019516.025461-.029854.037508-.010591.012346-.021346.023968-.032197.034823l-.0000315-.0000355c-.029209.029205-.061354.055606-.095909.078685-.034228.022866-.070921.042551-.109563.058547-.037898.015697-.077531.027819-.118409.035929-.039969.00793-.081213.012094-.12326.012094s-.083283-.00417-.123252-.012094c-.040886-.00811-.08052-.020232-.118413-.035929-.038638-.015996-.075327-.035673-.109551-.058539-.034709-.023181-.066847-.049559-.095945-.078658-.011055-.011055-.022039-.022965-.032866-.035654-.00684-.00802-.013524-.016256-.020035-.024685l-.0002598.0002008-.010437-.014287-.00135-.00186-.0032.00437-.000067.0000708c-.00953.012902-.019441.025354-.029677.03728-.010535.012272-.021224.023823-.031969.034571l-.0000314-.0000354c-.029209.029205-.061354.055606-.095902.078685-.034236.022866-.070929.042551-.109571.058547-.037894.015697-.077532.027819-.118409.035929-.039965.00793-.081209.012094-.12326.012094-.042047 0-.083291-.00416-.123244-.012094-.040886-.00811-.08052-.020232-.118413-.035929-.038646-.015996-.075335-.035673-.109563-.058539-.034701-.023181-.06685-.049559-.095941-.078658-.011055-.011055-.022039-.022965-.032866-.035654-.006835-.00802-.0135236-.016248-.0200354-.024685l-.00023622.000185-.0104606-.014339-.001472-.00202-.003063.0042c-.00952.012913-.0194843.025425-.0298307.037468-.0106024.012358-.0213622.023988-.0322126.034842-.0290945.029091-.0612402.055476-.0959409.078658-.0342283.022866-.0709213.042543-.109567.058539-.0378937.015697-.0775276.027819-.118406.035929-.0399685.00793-.0812047.012094-.123252.012094-.0420472 0-.0832835-.00417-.123252-.012094-.04089578-.0081124-.08052968-.0202345-.11842698-.0359313-.0386417-.0159961-.0753346-.0356732-.109563-.0585394-.0347008-.0231811-.0668386-.0495591-.0959409-.0786575-.00377953-.0037834-.00751969-.0076259-.0112244-.0115276v.279618c.0303937.0195079.0622795.0372126.0954685.0529173.0354252.01676.072248.031165.110213.042984.0401339.012484.0817087.022102.124457.028547.0417244.0063.0845709.00957.12826.00957.0435512 0 .0862362-.00324.127803-.00949.0426929-.00641.0841299-.015945.124051-.028311z"/></g></svg>