<svg clip-rule="evenodd" fill-rule="evenodd" height=".772327in" image-rendering="optimizeQuality" shape-rendering="geometricPrecision" text-rendering="geometricPrecision" viewBox="0 0 3.98818 .772327" width="3.98818in" xmlns="http://www.w3.org/2000/svg"><g fill-rule="nonzero"><path d="m.949862.00496457c.0183228.0204606.0379882.0433701.0587835.0674173.0184606.0213425.0353386.0386614.0554528.0608898.0124567.0137638.0291614.0323307.0421693.0458622.147323.153299.329024.221457.504756.164976.0499016-.0160394.0967559-.0390512.145472-.0752717.093374-.0694291.150697-.141437.217768-.23228l.0127087-.0172677.014189.0162323c.0102913.0118425.0209331.0241929.0318858.0368583.0184606.0213425.0353386.0386614.0554528.0608898.0124567.0137638.0291614.0323307.0421693.0458622.147323.153299.329024.221457.504756.164976.0499016-.0160394.0967559-.0390512.145472-.0752717.105559-.0784882.165035-.160268.244626-.268839l.00003937.00005118v.302114c-.00158661-.00211811-.00316142-.00424409-.00472047-.00637795l-.00009843-.00029528-.00133071-.00183465-.00309055.00422441c-.00952756.0129331-.0195157.0254606-.0298543.0375079-.0105906.0123465-.0213465.0239685-.0321969.0348228l-.0000315-.00003543c-.0292087.0292047-.0613543.0556063-.0959094.078685-.0342283.0228661-.0709213.0425512-.109563.0585472-.0378976.0156969-.0775315.0278189-.118409.0359291-.0399685.0079252-.0812126.0120945-.12326.0120945-.0420472 0-.0832835-.00416929-.123252-.0120945-.0408858-.00811024-.0805197-.0202323-.118413-.0359291-.0386378-.0159961-.0753268-.0356732-.109551-.0585394-.0347087-.0231811-.0668465-.0495591-.0959449-.0786575-.0110551-.0110551-.0220394-.0229646-.0328661-.0356535-.00684252-.00801575-.0135236-.0162559-.0200354-.024685l-.00025984.00020079-.010437-.0142874-.00135039-.0018622-.00320079.00436614-.00006693.00007087c-.00952756.0129016-.0194409.0253543-.0296772.0372795-.0105354.0122717-.0212244.0238228-.0319685.0345709l-.0000315-.00003543c-.0292087.0292047-.0613543.0556063-.0959016.078685-.0342362.0228661-.0709291.0425512-.109571.0585472-.0378937.0156969-.0775315.0278189-.118409.0359291-.0399646.0079252-.0812087.0120945-.12326.0120945-.0420472 0-.0832913-.00416142-.123244-.0120945-.0408858-.00811024-.0805197-.0202323-.118413-.0359291-.0386457-.0159961-.0753346-.0356732-.109563-.0585394-.0347008-.0231811-.0668504-.0495591-.0959409-.0786575-.0110551-.0110551-.0220394-.0229646-.0328661-.0356535-.00683465-.00801575-.0135236-.016248-.0200354-.024685l-.00023622.00018504-.0104606-.0143386-.00147244-.00202362-.00306299.00420472c-.00575591.00780709-.0116772.0154724-.0177441.0229724v-.315909z" fill="#ab4038"/><path d="m.710252.734528c.0376339-.0116614.0742598-.0259449.109602-.0425827.0530866-.0250039.0939961-.0514055.140874-.0836496l.00976378-.00670866.00972835.00670866.0209803.0144685c.0349134.0240906.0718228.0456654.110417.0644409h.00006693c.0382362.0186063.0779409.0344094.118764.0470984l.0079252.0024685c.0375709.0112598.0764488.0199961.116409.0260197.0416732.00627559.0844606.00953543.128118.00953543.0435551 0 .0862362-.00324409.127803-.00948819.0426929-.00641339.0841299-.0159449.124051-.028311.0376417-.0116614.0742598-.0259449.109602-.0425827.0356693-.0168031.0700591-.0360748.102909-.0575669l.00000787.00000787.046689-.0332874.00991732.00683858.0218228.0150354c.034937.0240787.0718504.0456575.110417.0644213.0381142.0185315.0777323.0342835.118563.0469646.0400079.0124213.0815433.0219961.124319.0284331.0416654.00627559.0844528.00953543.128094.00953543.0435512 0 .0862362-.00324409.127803-.00948819.0426929-.00641339.0841299-.0159449.124051-.028311.0376339-.0116614.0742598-.0259449.109602-.0425827.0354409-.0166969.069622-.0358307.102283-.0571614l.0347953-.0277913.00991732-.00791732.0105197.00725197.0238307.016437c.0348465.0240433.0717913.0456417.110524.0645.0381614.0185709.077748.0343425.118433.0469882l.00029921.00005118c.0400433.0124331.0815945.0220276.124374.0284724.0416732.00628346.0844646.00955118.128083.00955118.0435512 0 .0862323-.00324409.127803-.00948819.042689-.00641339.0841378-.0159449.124047-.028311.0376417-.0116614.0742638-.0259449.109606-.0425827.0328543-.0154764.0646299-.0330433.0951102-.0525197v-.278831c-.00315354.00329134-.00629134.00650394-.00940551.00961811-.0290906.0290906-.0612402.0554764-.0959331.0786575-.0342362.0228661-.0709291.0425433-.109563.0585394-.0378937.0156969-.0775276.0278189-.118406.0359291-.0399685.0079252-.0812126.0120945-.12326.0120945-.0420512 0-.0832874-.00416929-.123256-.0120945-.0408858-.00811024-.0805197-.0202323-.118413-.0359291-.0386417-.0159961-.0753346-.0356811-.109563-.0585472-.0345551-.0230787-.0667047-.0494803-.0959094-.078685l-.0000315.00003543c-.011185-.011185-.0222402-.0231693-.0330669-.0358386-.0106339-.0124291-.0208346-.025315-.0305315-.0385866l-.00009843-.00029528-.00133071-.00183465-.00309055.00422441c-.00952756.0129331-.0195157.0254606-.0298543.0375079-.0105906.0123465-.0213465.0239685-.0321969.0348228l-.0000315-.00003543c-.0292087.0292047-.0613543.0556063-.0959094.078685-.0342283.0228661-.0709213.0425512-.109563.0585472-.0378976.0156969-.0775315.0278189-.118409.0359291-.0399685.0079252-.0812126.0120945-.12326.0120945-.0420472 0-.0832835-.00416929-.123252-.0120945-.0408858-.00811024-.0805197-.0202323-.118413-.0359291-.0386378-.0159961-.0753268-.0356732-.109551-.0585394-.0347087-.0231811-.0668465-.0495591-.0959449-.0786575-.0110551-.0110551-.0220394-.0229646-.0328661-.0356535-.00684252-.00801575-.0135236-.0162559-.0200354-.024685l-.00025984.00020079-.010437-.0142874-.00135039-.0018622-.00320079.00436614-.00006693.00007087c-.00952756.0129016-.0194409.0253543-.0296772.0372795-.0105354.0122717-.0212244.0238228-.0319685.0345709l-.0000315-.00003543c-.0292087.0292047-.0613543.0556063-.0959016.078685-.0342362.0228661-.0709291.0425512-.109571.0585472-.0378937.0156969-.0775315.0278189-.118409.0359291-.0399646.0079252-.0812087.0120945-.12326.0120945-.0420472 0-.0832913-.00416142-.123244-.0120945-.0408858-.00811024-.0805197-.0202323-.118413-.0359291-.0386457-.0159961-.0753346-.0356732-.109563-.0585394-.0347008-.0231811-.0668504-.0495591-.0959409-.0786575-.0110551-.0110551-.0220394-.0229646-.0328661-.0356535-.00683465-.00801575-.0135236-.016248-.0200354-.024685l-.00023622.00018504-.0104606-.0143386-.00147244-.00202362-.00306299.00420472c-.00951969.0129134-.0194843.0254252-.0298307.0374685-.0106024.0123583-.0213622.0239882-.0322126.0348425-.0290945.0290906-.0612402.0554764-.0959409.0786575-.0342283.0228661-.0709213.0425433-.109567.0585394-.0378937.0156969-.0775276.0278189-.118406.0359291-.0399685.0079252-.0812047.0120945-.123252.0120945-.0420472 0-.0832835-.00416929-.123252-.0120945-.0408858-.00811024-.0805197-.0202323-.118417-.0359291-.0386417-.0159961-.0753346-.0356732-.109563-.0585394-.0347008-.0231811-.0668386-.0495591-.0959409-.0786575-.00377953-.00378346-.00751969-.00762598-.0112244-.0115276v.279618c.0303937.0195079.0622795.0372126.0954685.0529173.0354252.0167598.072248.0311654.110213.0429843.0401339.0124843.0817087.0221024.124457.0285472.0417244.00629921.0845709.0095748.12826.0095748.0435512 0 .0862362-.00324409.127803-.00948819.0426929-.00641339.0841299-.0159449.124051-.028311z" fill="#fff"/></g></svg>