<?xml version="1.0" encoding="UTF-8" standalone="no"?>
<!-- Creator: CorelDRAW -->

<svg
   xmlns:dc="http://purl.org/dc/elements/1.1/"
   xmlns:cc="http://creativecommons.org/ns#"
   xmlns:rdf="http://www.w3.org/1999/02/22-rdf-syntax-ns#"
   xmlns:svg="http://www.w3.org/2000/svg"
   xmlns="http://www.w3.org/2000/svg"
   xmlns:sodipodi="http://sodipodi.sourceforge.net/DTD/sodipodi-0.dtd"
   xmlns:inkscape="http://www.inkscape.org/namespaces/inkscape"
   xml:space="preserve"
   width="295.02969"
   height="274.77658"
   style="clip-rule:evenodd;fill-rule:evenodd;image-rendering:optimizeQuality;shape-rendering:geometricPrecision;text-rendering:geometricPrecision"
   viewBox="0 0 3.0732261 2.8622561"
   version="1.1"
   id="svg11"
   sodipodi:docname="logo_compact.svg"
   inkscape:version="0.92.4 (5da689c313, 2019-01-14)"
   inkscape:export-xdpi="164.94"
   inkscape:export-ydpi="164.94"><metadata
   id="metadata15"><rdf:RDF><cc:Work
       rdf:about=""><dc:format>image/svg+xml</dc:format><dc:type
         rdf:resource="http://purl.org/dc/dcmitype/StillImage" /><dc:title></dc:title></cc:Work></rdf:RDF></metadata><sodipodi:namedview
   pagecolor="#000000"
   bordercolor="#666666"
   borderopacity="1"
   objecttolerance="10"
   gridtolerance="10"
   guidetolerance="10"
   inkscape:pageopacity="0"
   inkscape:pageshadow="2"
   inkscape:window-width="1920"
   inkscape:window-height="1046"
   id="namedview13"
   showgrid="false"
   inkscape:pagecheckerboard="true"
   units="mm"
   inkscape:zoom="0.52636122"
   inkscape:cx="161.21723"
   inkscape:cy="161.21496"
   inkscape:window-x="0"
   inkscape:window-y="34"
   inkscape:window-maximized="1"
   inkscape:current-layer="_640418504"
   fit-margin-top="0"
   fit-margin-left="0"
   fit-margin-right="0"
   fit-margin-bottom="0" />
 <defs
   id="defs4">
  <style
   type="text/css"
   id="style2">
   <![CDATA[
    .fil0 {fill:#FEFEFE;fill-rule:nonzero}
   ]]>
  </style>
 </defs>
 <g
   id="Layer_x0020_1"
   transform="translate(0.4383543,-0.89583523)">
  <metadata
   id="CorelCorpID_0Corel-Layer" />
  <g
   id="_640418504">
   <path
   id="_640418600"
   class="fil0"
   d="m 0.15292043,3.1019334 0.560906,-1.21922 c 0.126059,-0.262354 0.37751997,-0.348654 0.64512597,-0.322335 0.1578619,0.015516 0.1896299,0.0011 0.2610629,-0.153874 l 0.210965,-0.45762998 c 0.020996,-0.045555 0.075386,-0.065705 0.120953,-0.04474 l 0.137307,0.06315 0.00354,0.00163 0.137307,0.063157 c 0.045567,0.020957 0.06572,0.075402 0.04474,0.120953 l -0.217642,0.472118 c -0.075236,0.16322 -0.065563,0.176079 0.058665,0.303866 0.190114,0.195547 0.279665,0.44128 0.151398,0.669244 l -0.2418621,0.525724 c -0.048697,0.055835 -0.103969,0.106516 -0.170697,0.151067 -0.023744,0.015866 -0.049102,0.02948 -0.075693,0.040488 -0.025335,0.010484 -0.05285,0.018799 -0.082268,0.024638 -0.00623,0.00124 -0.012528,0.00233 -0.01889,0.0033 l 0.3609691,-0.784795 c 0.00326,-0.00615 0.00519,-0.00989 0.00588,-0.011382 V 2.546442 C 2.1258723,2.369907 2.0466873,2.211718 1.9218722,2.08719 1.8388903,2.00439 1.7306858,1.9358433 1.6671858,1.9019173 c -0.013909,-0.00745 -0.02622,-0.013591 -0.036283,-0.018209 -0.026654,-0.01226 -0.04926,-0.021996 -0.067925,-0.029287 -0.020516,-0.00802 -0.043894,-0.016256 -0.069756,-0.024591 l -0.018071,-0.00515 c -0.037154,-0.00849 -0.075374,-0.014516 -0.1137319,-0.01815 -0.039677,-0.00378 -0.077638,-0.0047 -0.113028,-0.00293 -0.28397597,0.014126 -0.32331097,0.184433 -0.42472797,0.404921 l -0.407366,0.885677 c -0.00326,0.00708 -0.029598,0.063591 -0.081823,0.175886 -0.07076,-0.048413 -0.129949,-0.105697 -0.181551,-0.168138 z m 1.29507987,0.216134 -0.0063,-0.00254 c -0.026587,-0.011016 -0.051933,-0.024622 -0.075685,-0.04048 -0.069051,-0.046122 -0.127941,-0.10124 -0.179181,-0.160961 0.047567,-0.103425 0.094126,-0.20461 0.141654,-0.307965 l 0.1436379,-0.312287 0.041091,-0.089315 -0.08874,-0.043024 c -0.097905,-0.04748 -0.185461,-0.111378 -0.238417,-0.179811 -0.078047,-0.100874 -0.055067,-0.152366 0.072646,-0.158732 0.197638,-0.00983 0.420146,0.10763 0.54174,0.25665 0.047811,0.058598 0.073146,0.122827 0.041276,0.182453 l -0.39372,0.856016 z m -0.52305887,-0.11635 c -0.029,0.026012 -0.060295,0.05052 -0.094445,0.073319 -0.023744,0.015866 -0.049102,0.02948 -0.075693,0.040488 -0.025335,0.010484 -0.05285,0.018799 -0.082268,0.024638 -0.027508,0.00545 -0.056394,0.00832 -0.086382,0.00832 -0.015216,0 -0.030138,-7.401e-4 -0.044756,-0.00218 0.029591,-0.063705 0.055618,-0.119921 0.074476,-0.160929 l 0.40736597,-0.885685 0.00369,0.00484 c 0.055071,0.071173 0.134016,0.137039 0.22328,0.190988 l -0.104441,0.22711 c -0.07361,0.160016 -0.14679097,0.318693 -0.22082707,0.4790829 z"
   inkscape:connector-curvature="0"
   style="fill:#fefefe;fill-rule:nonzero" />
   <path
   id="_640418576"
   class="fil0"
   d="m -0.18649757,3.7202834 c 0.0376339,-0.011661 0.0742598,-0.025945 0.109602,-0.042583 0.0530866,-0.025004 0.0939961,-0.051405 0.140874,-0.08365 l 0.009764,-0.00671 0.009728,0.00671 0.0209803,0.014468 c 0.034913,0.024091 0.071823,0.045665 0.110417,0.064441 h 6.7e-5 c 0.038236,0.018606 0.077941,0.034409 0.118764,0.047098 l 0.00793,0.00247 c 0.037571,0.01126 0.076449,0.019996 0.116409,0.02602 0.041673,0.00628 0.084461,0.00954 0.128118,0.00954 0.043555,0 0.086236,-0.00324 0.127803,-0.00949 0.042693,-0.00641 0.08413,-0.015945 0.124051,-0.028311 0.037642,-0.011661 0.07426,-0.025945 0.109602,-0.042583 0.035669,-0.016803 0.070059,-0.036075 0.10290897,-0.057567 l 7.8e-6,7.9e-6 0.046689,-0.033287 0.00992,0.00684 0.021823,0.015035 c 0.034937,0.024079 0.07185,0.045657 0.110417,0.064421 0.038114,0.018531 0.077732,0.034283 0.118563,0.046965 0.040008,0.012421 0.081543,0.021996 0.1243189,0.028433 0.041665,0.00628 0.084453,0.00954 0.128094,0.00954 0.043551,0 0.086236,-0.00324 0.127803,-0.00949 0.042693,-0.00641 0.08413,-0.015945 0.124051,-0.028311 0.037634,-0.011661 0.07426,-0.025945 0.109602,-0.042583 0.035441,-0.016697 0.069622,-0.035831 0.102283,-0.057161 l 0.034795,-0.027791 0.00992,-0.00792 0.01052,0.00725 0.023831,0.016437 c 0.034847,0.024043 0.071791,0.045642 0.110524,0.0645 0.038161,0.018571 0.077748,0.034343 0.118433,0.046988 l 2.992e-4,5.12e-5 c 0.040043,0.012433 0.081595,0.022028 0.1243741,0.028472 0.041673,0.00628 0.128083,0.00955 0.128083,0.00955 l -5.9e-6,-0.216896 c 0,0 -0.083287,-0.00417 -0.123256,-0.012094 -0.040886,-0.00811 -0.08052,-0.020232 -0.118413,-0.035929 -0.038642,-0.015996 -0.075335,-0.035681 -0.109563,-0.058547 -0.034555,-0.023079 -0.066705,-0.04948 -0.095909,-0.078685 l -3.15e-5,3.54e-5 c -0.011185,-0.011185 -0.02224,-0.023169 -0.033067,-0.035839 -0.010634,-0.012429 -0.020835,-0.025315 -0.030531,-0.038587 l -9.84e-5,-2.953e-4 -0.00133,-0.00183 -0.00309,0.00422 c -0.00953,0.012933 -0.019516,0.025461 -0.029854,0.037508 -0.010591,0.012346 -0.021346,0.023968 -0.032197,0.034823 l -3.16e-5,-3.55e-5 c -0.029209,0.029205 -0.061354,0.055606 -0.095909,0.078685 -0.034228,0.022866 -0.070921,0.042551 -0.109563,0.058547 -0.037898,0.015697 -0.077531,0.027819 -0.118409,0.035929 -0.039969,0.00793 -0.081213,0.012094 -0.12326,0.012094 -0.042047,0 -0.083283,-0.00417 -0.1232519,-0.012094 -0.040886,-0.00811 -0.08052,-0.020232 -0.1184131,-0.035929 -0.038638,-0.015996 -0.075327,-0.035673 -0.109551,-0.058539 -0.034709,-0.023181 -0.066847,-0.049559 -0.095945,-0.078658 -0.011055,-0.011055 -0.022039,-0.022965 -0.032866,-0.035654 -0.00684,-0.00802 -0.013524,-0.016256 -0.020035,-0.024685 l -2.599e-4,2.008e-4 -0.010437,-0.014287 -0.00135,-0.00186 -0.0032,0.00437 -6.71e-5,7.08e-5 c -0.00953,0.012902 -0.019441,0.025354 -0.029677,0.03728 -0.010535,0.012272 -0.021224,0.023823 -0.031969,0.034571 l -3.14e-5,-3.54e-5 c -0.029209,0.029205 -0.0613541,0.055606 -0.095902,0.078685 -0.034236,0.022866 -0.070929,0.042551 -0.109571,0.058547 -0.037894,0.015697 -0.077532,0.027819 -0.118409,0.035929 -0.039965,0.00793 -0.081209,0.012094 -0.12326,0.012094 -0.042047,0 -0.083291,-0.00416 -0.123244,-0.012094 -0.040886,-0.00811 -0.08052,-0.020232 -0.118413,-0.035929 -0.038646,-0.015996 -0.075335,-0.035673 -0.109563,-0.058539 -0.034701,-0.023181 -0.06685,-0.049559 -0.095941,-0.078658 -0.011055,-0.011055 -0.022039,-0.022965 -0.032866,-0.035654 -0.006835,-0.00802 -0.0135236,-0.016248 -0.0200354,-0.024685 l -2.3622e-4,1.85e-4 -0.0104606,-0.014339 -0.001472,-0.00202 -0.003063,0.0042 c -0.00952,0.012913 -0.0194843,0.025425 -0.0298307,0.037468 -0.0106024,0.012358 -0.0213622,0.023988 -0.0322126,0.034842 -0.0290945,0.029091 -0.0612402,0.055476 -0.0959409,0.078658 -0.0342283,0.022866 -0.0709213,0.042543 -0.109567,0.058539 -0.0378937,0.015697 -0.0775276,0.027819 -0.118406,0.035929 -0.0399685,0.00793 -0.123252,0.012094 -0.123252,0.012094 l -8.78e-6,0.2168865 c 0,0 0.0862362,-0.00324 0.127803,-0.00949 0.0426929,-0.00641 0.0841299,-0.015945 0.124051,-0.028311 z"
   inkscape:connector-curvature="0"
   style="fill:#fefefe;fill-rule:nonzero"
   sodipodi:nodetypes="cccccccccccscccccccccccsccccccccccccccccccccccccccccccscccccccccccccccccscccccccccccccccccccc" />
  </g>
 </g>
</svg>