<?xml version="1.0" encoding="UTF-8" standalone="no"?>
<!-- Creator: CorelDRAW -->

<svg
   xmlns:dc="http://purl.org/dc/elements/1.1/"
   xmlns:cc="http://creativecommons.org/ns#"
   xmlns:rdf="http://www.w3.org/1999/02/22-rdf-syntax-ns#"
   xmlns:svg="http://www.w3.org/2000/svg"
   xmlns="http://www.w3.org/2000/svg"
   xmlns:sodipodi="http://sodipodi.sourceforge.net/DTD/sodipodi-0.dtd"
   xmlns:inkscape="http://www.inkscape.org/namespaces/inkscape"
   xml:space="preserve"
   width="596"
   height="596"
   style="image-rendering:optimizeQuality;shape-rendering:geometricPrecision;text-rendering:geometricPrecision"
   viewBox="0 0 6.2083336 6.2083335"
   version="1.1"
   id="svg11"
   sodipodi:docname="logo_compact_padded_extra_more_circle.svg"
   inkscape:version="0.92.4 (5da689c313, 2019-01-14)"
   inkscape:export-filename="/home/wilko/Projects/pattle/assets/logo/logo_circle.png"
   inkscape:export-xdpi="219.42999"
   inkscape:export-ydpi="219.42999"><metadata
   id="metadata15"><rdf:RDF><cc:Work
       rdf:about=""><dc:format>image/svg+xml</dc:format><dc:type
         rdf:resource="http://purl.org/dc/dcmitype/StillImage" /><dc:title></dc:title></cc:Work></rdf:RDF></metadata><sodipodi:namedview
   pagecolor="#aa4139"
   bordercolor="#666666"
   borderopacity="1"
   objecttolerance="10"
   gridtolerance="10"
   guidetolerance="10"
   inkscape:pageopacity="1"
   inkscape:pageshadow="2"
   inkscape:window-width="956"
   inkscape:window-height="1017"
   id="namedview13"
   showgrid="false"
   inkscape:pagecheckerboard="true"
   units="mm"
   inkscape:zoom="0.52636124"
   inkscape:cx="300.12483"
   inkscape:cy="203.90388"
   inkscape:window-x="960"
   inkscape:window-y="34"
   inkscape:window-maximized="0"
   inkscape:current-layer="layer1"
   fit-margin-top="0"
   fit-margin-left="0"
   fit-margin-right="0"
   fit-margin-bottom="0" />
 <defs
   id="defs4">
  <style
   type="text/css"
   id="style2">
   <![CDATA[
    .fil0 {fill:#FEFEFE;fill-rule:nonzero}
   ]]>
  </style>
 </defs>
 <g
   inkscape:groupmode="layer"
   id="layer1"
   inkscape:label="Cutout"
   transform="translate(0.4383543,2.4502422)"
   style="display:inline"><path
     style="clip-rule:evenodd;display:inline;opacity:1;fill:#ffffff;fill-opacity:1;fill-rule:evenodd;stroke:none;stroke-width:0.7784459;stroke-linecap:round;stroke-linejoin:round;stroke-miterlimit:4;stroke-dasharray:none;stroke-opacity:1;image-rendering:optimizeQuality;shape-rendering:geometricPrecision;text-rendering:geometricPrecision"
     d="M 4.082689,1.8565822 C 4.081419,1.856352 4.079309,1.8562895 4.078109,1.856053 4.057666,1.851993 4.037542,1.846943 4.017786,1.840937 3.99803,1.834927 3.978647,1.827973 3.959701,1.820124 3.94038,1.812124 3.921546,1.80321 3.903264,1.793431 3.884982,1.783651 3.867257,1.773004 3.850143,1.761571 3.832865,1.750031 3.816183,1.737679 3.800176,1.724543 3.784169,1.711407 3.768818,1.697499 3.754216,1.682897 l -2.08e-5,4.16e-5 c -0.011183,-0.011186 -0.022232,-0.023179 -0.033059,-0.035849 -0.010634,-0.012429 -0.020842,-0.025323 -0.030538,-0.038595 l -1.042e-4,-2.844e-4 -0.00132,-0.00183 -0.00309,0.00421 c -0.00953,0.012933 -0.019528,0.025469 -0.029866,0.037516 -0.010591,0.012346 -0.021335,0.023976 -0.032186,0.034831 l -4.17e-5,-4.17e-5 c -0.014604,0.014603 -0.029932,0.028511 -0.045939,0.041646 -0.016007,0.013136 -0.03269,0.025488 -0.049968,0.037028 -0.017114,0.011433 -0.034839,0.022081 -0.053121,0.03186 -0.018282,0.00978 -0.037116,0.018695 -0.056437,0.026693 -0.018949,0.00785 -0.03833,0.014807 -0.058085,0.020813 -0.019755,0.00601 -0.039884,0.011061 -0.060323,0.015116 -0.019985,0.00396 -0.040289,0.00698 -0.060852,0.00901 -0.020563,0.00203 -0.041395,0.00309 -0.062418,0.00309 -0.021024,0 -0.041837,-0.00106 -0.062398,-0.00309 -0.020561,-0.00203 -0.040868,-0.00505 -0.060852,-0.00901 -0.020443,-0.00406 -0.040567,-0.00911 -0.060323,-0.015116 -0.019756,-0.00601 -0.039139,-0.012964 -0.058085,-0.020813 -0.019319,-0.008 -0.038157,-0.016916 -0.056437,-0.026693 -0.01828,-0.00978 -0.035989,-0.020407 -0.053101,-0.03184 -0.017354,-0.011591 -0.034079,-0.02398 -0.050089,-0.037109 -0.01601,-0.013129 -0.031309,-0.026995 -0.045858,-0.041545 -0.011055,-0.011055 -0.022051,-0.022976 -0.032878,-0.035665 -0.00684,-0.00802 -0.013529,-0.01625 -0.02004,-0.024678 l -2.438e-4,2.031e-4 -0.010437,-0.014303 -0.00136,-0.00185 -0.00319,0.00437 -6.25e-5,6.25e-5 c -0.00953,0.012902 -0.019448,0.025367 -0.029683,0.037292 -0.010535,0.012272 -0.021217,0.023818 -0.031962,0.034566 l -4.17e-5,-4.17e-5 c -0.014605,0.014603 -0.029933,0.02851 -0.045939,0.041646 -0.016006,0.013136 -0.032694,0.025509 -0.049967,0.037048 -0.017118,0.011433 -0.034838,0.022061 -0.053121,0.03184 -0.018283,0.00978 -0.037116,0.018695 -0.056437,0.026693 -0.018947,0.00785 -0.038329,0.014807 -0.058085,0.020813 -0.019756,0.00601 -0.039885,0.011061 -0.060323,0.015116 -0.019983,0.00396 -0.040289,0.007 -0.060852,0.00903 -0.020563,0.00203 -0.041393,0.00307 -0.062419,0.00307 -0.021024,0 -0.041837,-0.00104 -0.062398,-0.00307 -0.020561,-0.00203 -0.040855,-0.00507 -0.060832,-0.00903 -0.020443,-0.00406 -0.040587,-0.00911 -0.060344,-0.015116 -0.019756,-0.00601 -0.039138,-0.012964 -0.058085,-0.020813 -0.019323,-0.008 -0.038156,-0.016916 -0.056437,-0.026693 -0.018282,-0.00978 -0.036007,-0.020407 -0.053121,-0.03184 -0.017351,-0.01159 -0.034058,-0.023979 -0.050069,-0.037108 -0.016011,-0.013129 -0.031333,-0.026995 -0.045878,-0.041545 -0.011055,-0.011055 -0.02203,-0.022976 -0.032857,-0.035665 -0.00684,-0.00802 -0.013528,-0.016242 -0.02004,-0.024678 l -2.24e-4,1.833e-4 -0.010478,-0.014343 -0.00147,-0.00201 -0.00307,0.00421 c -0.00952,0.012913 -0.019479,0.025412 -0.029826,0.037455 -0.010602,0.012358 -0.021356,0.023997 -0.032206,0.034851 -0.014547,0.014546 -0.029867,0.028414 -0.045878,0.041545 -0.016011,0.01313 -0.032719,0.025518 -0.050069,0.037109 -0.017114,0.011433 -0.034838,0.022063 -0.053121,0.03184 -0.018282,0.00978 -0.037114,0.018695 -0.056437,0.026693 -0.018947,0.00785 -0.03833,0.014807 -0.058085,0.020813 -0.019755,0.00601 -0.039884,0.011061 -0.060323,0.015116 -6.471e-4,1.282e-4 -0.00181,1.584e-4 -0.00248,2.844e-4 A 1.8595931,1.8595931 0 0 0 1.4192845,2.031975 c 0.023664,-0.00867 0.047653,-0.016646 0.070333,-0.027323 0.026543,-0.012502 0.050031,-0.025347 0.072754,-0.039103 0.022723,-0.013756 0.044676,-0.028413 0.068115,-0.044535 l 0.00977,-0.00671 0.00972,0.00671 0.020976,0.014465 c 0.034913,0.024091 0.071839,0.045657 0.1104329,0.064433 h 6.25e-5 c 0.038236,0.018606 0.077931,0.03441 0.1187541,0.047099 l 0.00793,0.00248 c 0.037571,0.01126 0.076454,0.019997 0.1164144,0.026021 0.041673,0.00628 0.084456,0.00954 0.1281129,0.00954 0.043555,0 0.086241,-0.00325 0.1278076,-0.0095 0.042693,-0.00641 0.084123,-0.015934 0.1240438,-0.0283 C 2.4421527,2.035591 2.4787677,2.021308 2.5141096,2.00467 2.5497786,1.987867 2.5841856,1.968585 2.6170353,1.947093 l 0.046692,-0.033285 0.00991,0.00686 0.02183,0.015035 c 0.034937,0.024079 0.071846,0.045648 0.1104126,0.064412 0.038114,0.018531 0.07774,0.034274 0.118571,0.046956 0.040008,0.012421 0.081532,0.022005 0.1243083,0.028442 0.041665,0.00628 0.084452,0.00954 0.1280925,0.00954 0.043551,0 0.086241,-0.00325 0.1278077,-0.0095 0.042693,-0.00641 0.084143,-0.015934 0.1240641,-0.0283 0.037634,-0.011661 0.074257,-0.025944 0.1095989,-0.042582 0.035441,-0.016697 0.069613,-0.03584 0.1022746,-0.05717 L 3.675387,1.91971 3.685317,1.9118 3.695835,1.91904 3.719659,1.935479 c 0.034847,0.024043 0.071802,0.045636 0.1105348,0.064494 0.025842,0.012576 0.053152,0.021913 0.0802,0.03182 A 1.8595931,1.8595931 0 0 0 4.0826843,1.8565824 Z"
     id="path865"
     inkscape:connector-curvature="0" /><g
     id="Layer_x0020_1"
     style="display:inline;image-rendering:optimizeQuality;shape-rendering:geometricPrecision;text-rendering:geometricPrecision"
     transform="translate(1.0406142,-1.0416671)">
  <metadata
   id="CorelCorpID_0Corel-Layer" />
  <g
   id="_640418504">
   <path
   id="_640418600"
   class="fil0"
   d="m 0.6788075,2.4705615 0.560906,-1.21922 c 0.126059,-0.26235405 0.37752,-0.34865405 0.645126,-0.32233505 0.1578619,0.015516 0.1896299,0.0011 0.2610629,-0.153874 l 0.210965,-0.45762998 c 0.020996,-0.045555 0.075386,-0.065705 0.120953,-0.04474 l 0.137307,0.06315 0.00354,0.00163 0.137307,0.063157 c 0.045567,0.020957 0.06572,0.075402 0.04474,0.120953 l -0.217642,0.472118 c -0.075236,0.16322003 -0.065563,0.17607903 0.058665,0.30386603 0.190114,0.195547 0.279665,0.44128 0.151398,0.669244 l -0.2418621,0.525724 c -0.048697,0.055835 -0.103969,0.106516 -0.170697,0.151067 -0.023744,0.015866 -0.049102,0.02948 -0.075693,0.040488 -0.025335,0.010484 -0.05285,0.018799 -0.082268,0.024638 -0.00623,0.00124 -0.012528,0.00233 -0.01889,0.0033 l 0.3609691,-0.784795 c 0.00326,-0.00615 0.00519,-0.00989 0.00588,-0.011382 v -8.504e-4 c 0.081185,-0.176535 0.002,-0.334724 -0.1228151,-0.459252 -0.082982,-0.0828 -0.1911864,-0.1513467 -0.2546864,-0.1852727 -0.013909,-0.00745 -0.02622,-0.013591 -0.036283,-0.018209 -0.026654,-0.01226 -0.04926,-0.021996 -0.067925,-0.029287 -0.020516,-0.00802 -0.043894,-0.016256 -0.069756,-0.024591 l -0.018071,-0.00515 C 1.9638839,1.1848184 1.9256639,1.1787924 1.887306,1.1751584 1.847629,1.1713784 1.809668,1.1704584 1.774278,1.1722284 1.490302,1.1863544 1.450967,1.3566614 1.34955,1.5771494 L 0.942184,2.4628264 C 0.938924,2.4699064 0.912586,2.5264174 0.860361,2.6387124 0.789601,2.5902994 0.730412,2.5330154 0.67881,2.4705744 Z m 1.2950799,0.216134 -0.0063,-0.00254 c -0.026587,-0.011016 -0.051933,-0.024622 -0.075685,-0.04048 -0.069051,-0.046122 -0.127941,-0.10124 -0.179181,-0.160961 0.047567,-0.103425 0.094126,-0.20461 0.141654,-0.307965 l 0.1436379,-0.312287 0.041091,-0.089315 -0.08874,-0.043024 c -0.097905,-0.04748 -0.185461,-0.111378 -0.238417,-0.179811 -0.078047,-0.100874 -0.055067,-0.152366 0.072646,-0.158732 0.197638,-0.00983 0.420146,0.10763 0.54174,0.25665 0.047811,0.058598 0.073146,0.122827 0.041276,0.182453 l -0.39372,0.856016 z m -0.5230589,-0.11635 c -0.029,0.026012 -0.060295,0.05052 -0.094445,0.073319 -0.023744,0.015866 -0.049102,0.02948 -0.075693,0.040488 -0.025335,0.010484 -0.05285,0.018799 -0.082268,0.024638 -0.027508,0.00545 -0.056394,0.00832 -0.086382,0.00832 -0.015216,0 -0.030138,-7.401e-4 -0.044756,-0.00218 0.029591,-0.063705 0.055618,-0.119921 0.074476,-0.160929 l 0.407366,-0.885685 0.00369,0.00484 c 0.055071,0.071173 0.134016,0.137039 0.22328,0.190988 l -0.104441,0.22711 c -0.07361,0.160016 -0.146791,0.318693 -0.2208271,0.4790829 z"
   inkscape:connector-curvature="0"
   style="fill:#fefefe;fill-rule:nonzero" />
   
  </g>
 </g></g>
</svg>
