<?xml version="1.0" encoding="UTF-8" standalone="no"?>
<!-- Creator: CorelDRAW -->

<svg
   xmlns:dc="http://purl.org/dc/elements/1.1/"
   xmlns:cc="http://creativecommons.org/ns#"
   xmlns:rdf="http://www.w3.org/1999/02/22-rdf-syntax-ns#"
   xmlns:svg="http://www.w3.org/2000/svg"
   xmlns="http://www.w3.org/2000/svg"
   xmlns:sodipodi="http://sodipodi.sourceforge.net/DTD/sodipodi-0.dtd"
   xmlns:inkscape="http://www.inkscape.org/namespaces/inkscape"
   xml:space="preserve"
   width="512"
   height="512"
   style="clip-rule:evenodd;fill-rule:evenodd;image-rendering:optimizeQuality;shape-rendering:geometricPrecision;text-rendering:geometricPrecision"
   viewBox="0 0 5.3333335 5.3333333"
   version="1.1"
   id="svg11"
   sodipodi:docname="logo_tmp.svg"
   inkscape:version="0.92.4 (5da689c313, 2019-01-14)"
   inkscape:export-filename="/home/wilko/pattle.png"
   inkscape:export-xdpi="192"
   inkscape:export-ydpi="192"><metadata
   id="metadata15"><rdf:RDF><cc:Work
       rdf:about=""><dc:format>image/svg+xml</dc:format><dc:type
         rdf:resource="http://purl.org/dc/dcmitype/StillImage" /><dc:title></dc:title></cc:Work></rdf:RDF></metadata><sodipodi:namedview
   pagecolor="#aa4139"
   bordercolor="#666666"
   borderopacity="1"
   objecttolerance="10"
   gridtolerance="10"
   guidetolerance="10"
   inkscape:pageopacity="1"
   inkscape:pageshadow="2"
   inkscape:window-width="1920"
   inkscape:window-height="1046"
   id="namedview13"
   showgrid="false"
   units="px"
   inkscape:zoom="1.0527225"
   inkscape:cx="73.443687"
   inkscape:cy="269.97014"
   inkscape:window-x="0"
   inkscape:window-y="34"
   inkscape:window-maximized="1"
   inkscape:current-layer="svg11"
   inkscape:pagecheckerboard="false" />
 <defs
   id="defs4">
  <style
   type="text/css"
   id="style2">
   <![CDATA[
    .fil0 {fill:#FEFEFE;fill-rule:nonzero}
   ]]>
  </style>
 </defs>
 <g
   id="Layer_x0020_1"
   transform="translate(0.67257455,1.2355368)">
  <metadata
   id="CorelCorpID_0Corel-Layer" />
  <g
   id="_640418504">
   <path
   id="_640418600"
   class="fil0"
   d="M 1.04967,2.2061 1.610576,0.98688 C 1.736635,0.724526 1.988096,0.638226 2.255702,0.664545 2.413564,0.6800607 2.445332,0.66564343 2.516765,0.510671 L 2.72773,0.053041 C 2.748726,0.0074859 2.803116,-0.0126637 2.848683,0.0083008 l 0.137307,0.0631496 0.00354,0.001626 0.137307,0.0631575 c 0.045567,0.0209567 0.06572,0.0754016 0.04474,0.120953 l -0.217642,0.472118 c -0.075236,0.16322 -0.065563,0.176079 0.058665,0.303866 0.190114,0.195547 0.279665,0.44128 0.151398,0.669244 l -0.241862,0.525724 c -0.048697,0.055835 -0.103969,0.106516 -0.170697,0.151067 -0.023744,0.015866 -0.049102,0.02948 -0.075693,0.040488 -0.025335,0.010484 -0.05285,0.018799 -0.082268,0.024638 -0.00623,0.00124 -0.012528,0.00233 -0.01889,0.0033 l 0.360969,-0.784795 c 0.00326,-0.00615 0.00519,-0.00989 0.00588,-0.011382 V 1.6506045 C 3.022622,1.4740695 2.943437,1.3158805 2.818622,1.1913525 2.7356402,1.1085526 2.6274355,1.0400058 2.5639355,1.0060798 2.5500261,0.99863098 2.537715,0.9924892 2.527652,0.9878711 2.5009985,0.9756113 2.4783922,0.965875 2.4597268,0.9585837 2.4392111,0.95056008 2.4158331,0.9423278 2.3899709,0.9339931 L 2.3719,0.92883956 C 2.3347465,0.92034743 2.296526,0.91432386 2.258168,0.91068996 2.2184908,0.90691043 2.1805302,0.90599311 2.14514,0.90775689 1.861164,0.92188289 1.821829,1.0921899 1.720412,1.3126779 L 1.313046,2.1983549 C 1.309786,2.2054349 1.283448,2.2619459 1.231223,2.3742409 1.160463,2.3258279 1.101274,2.2685439 1.049672,2.2061029 Z M 2.34475,2.422234 2.33845,2.419694 C 2.311863,2.408678 2.286517,2.395072 2.262765,2.379214 2.193714,2.333092 2.134824,2.277974 2.083584,2.218253 2.131151,2.114828 2.17771,2.013643 2.225238,1.910288 L 2.368876,1.598001 2.409967,1.508686 2.321227,1.465662 C 2.223322,1.418182 2.135766,1.354284 2.08281,1.285851 2.004763,1.184977 2.027743,1.133485 2.155456,1.127119 c 0.197638,-0.00983 0.420146,0.10763 0.54174,0.25665 0.047811,0.058598 0.073146,0.122827 0.041276,0.182453 L 2.344752,2.422238 Z M 1.821691,2.305884 C 1.792691,2.331896 1.761396,2.356404 1.727246,2.379203 1.703502,2.395069 1.678144,2.408683 1.651553,2.419691 1.626218,2.430175 1.598703,2.43849 1.569285,2.444329 1.541777,2.449779 1.512891,2.452649 1.482903,2.452649 1.467687,2.452649 1.452765,2.4519089 1.438147,2.450469 1.467738,2.386764 1.493765,2.330548 1.512623,2.28954 l 0.407366,-0.885685 0.00369,0.00484 C 1.97875,1.479868 2.057695,1.545734 2.146959,1.599683 L 2.042518,1.826793 C 1.968908,1.986809 1.895727,2.145486 1.8216909,2.3058759 Z"
   inkscape:connector-curvature="0"
   style="fill:#fefefe;fill-rule:nonzero" />
   <path
   id="_640418576"
   class="fil0"
   d="M 0.710252,2.82445 C 0.7478859,2.812789 0.7845118,2.798505 0.819854,2.781867 0.8729406,2.756863 0.9138501,2.730462 0.960728,2.698217 l 0.009764,-0.00671 0.009728,0.00671 0.0209803,0.014468 c 0.034913,0.024091 0.071823,0.045665 0.110417,0.064441 h 6.7e-5 c 0.038236,0.018606 0.077941,0.034409 0.118764,0.047098 l 0.00793,0.00247 c 0.037571,0.01126 0.076449,0.019996 0.116409,0.02602 0.041673,0.00628 0.084461,0.00954 0.128118,0.00954 0.043555,0 0.086236,-0.00324 0.127803,-0.00949 0.042693,-0.00641 0.08413,-0.015945 0.124051,-0.028311 0.037642,-0.011661 0.07426,-0.025945 0.109602,-0.042583 0.035669,-0.016803 0.070059,-0.036075 0.102909,-0.057567 l 7.8e-6,7.9e-6 0.046689,-0.033287 0.00992,0.00684 0.021823,0.015035 c 0.034937,0.024079 0.07185,0.045657 0.110417,0.064421 0.038114,0.018531 0.077732,0.034283 0.118563,0.046965 0.040008,0.012421 0.081543,0.021996 0.124319,0.028433 0.041665,0.00628 0.084453,0.00954 0.128094,0.00954 0.043551,0 0.086236,-0.00324 0.127803,-0.00949 0.042693,-0.00641 0.08413,-0.015945 0.124051,-0.028311 0.037634,-0.011661 0.07426,-0.025945 0.109602,-0.042583 0.035441,-0.016697 0.069622,-0.035831 0.102283,-0.057161 l 0.034795,-0.027791 0.00992,-0.00792 0.01052,0.00725 0.023831,0.016437 c 0.034847,0.024043 0.071791,0.045642 0.110524,0.0645 0.038161,0.018571 0.077748,0.034343 0.118433,0.046988 l 2.992e-4,5.12e-5 c 0.040043,0.012433 0.081595,0.022028 0.124374,0.028472 0.041673,0.00628 0.084465,0.00955 0.128083,0.00955 0.043551,0 0.086232,-0.00324 0.127803,-0.00949 0.042689,-0.00641 0.084138,-0.015945 0.124047,-0.028311 0.037642,-0.011661 0.074264,-0.025945 0.109606,-0.042583 0.032854,-0.015476 0.06463,-0.033043 0.09511,-0.05252 v -0.278831 c -0.00315,0.00329 -0.00629,0.0065 -0.00941,0.00962 -0.029091,0.029091 -0.06124,0.055476 -0.095933,0.078657 -0.034236,0.022866 -0.070929,0.042543 -0.109563,0.058539 -0.037894,0.015697 -0.077528,0.027819 -0.118406,0.035929 -0.039969,0.00793 -0.081213,0.012094 -0.12326,0.012094 -0.042051,0 -0.083287,-0.00417 -0.123256,-0.012094 -0.040886,-0.00811 -0.08052,-0.020232 -0.118413,-0.035929 -0.038642,-0.015996 -0.075335,-0.035681 -0.109563,-0.058547 -0.034555,-0.023079 -0.066705,-0.04948 -0.095909,-0.078685 l -3.15e-5,3.54e-5 c -0.011185,-0.011185 -0.02224,-0.023169 -0.033067,-0.035839 -0.010634,-0.012429 -0.020835,-0.025315 -0.030531,-0.038587 l -9.84e-5,-2.953e-4 -0.00133,-0.00183 -0.00309,0.00422 c -0.00953,0.012933 -0.019516,0.025461 -0.029854,0.037508 -0.010591,0.012346 -0.021346,0.023968 -0.032197,0.034823 l -3.15e-5,-3.55e-5 c -0.029209,0.029205 -0.061354,0.055606 -0.095909,0.078685 -0.034228,0.022866 -0.070921,0.042551 -0.109563,0.058547 -0.037898,0.015697 -0.077531,0.027819 -0.118409,0.035929 -0.039969,0.00793 -0.081213,0.012094 -0.12326,0.012094 -0.042047,0 -0.083283,-0.00417 -0.123252,-0.012094 -0.040886,-0.00811 -0.08052,-0.020232 -0.118413,-0.035929 -0.038638,-0.015996 -0.075327,-0.035673 -0.109551,-0.058539 -0.034709,-0.023181 -0.066847,-0.049559 -0.095945,-0.078658 -0.011055,-0.011055 -0.022039,-0.022965 -0.032866,-0.035654 -0.00684,-0.00802 -0.013524,-0.016256 -0.020035,-0.024685 l -2.598e-4,2.008e-4 -0.010437,-0.014287 -0.00135,-0.00186 -0.0032,0.00437 -6.7e-5,7.08e-5 c -0.00953,0.012902 -0.019441,0.025354 -0.029677,0.03728 -0.010535,0.012272 -0.021224,0.023823 -0.031969,0.034571 l -3.14e-5,-3.54e-5 c -0.029209,0.029205 -0.061354,0.055606 -0.095902,0.078685 -0.034236,0.022866 -0.070929,0.042551 -0.109571,0.058547 -0.037894,0.015697 -0.077532,0.027819 -0.118409,0.035929 -0.039965,0.00793 -0.081209,0.012094 -0.12326,0.012094 -0.042047,0 -0.083291,-0.00416 -0.123244,-0.012094 -0.040886,-0.00811 -0.08052,-0.020232 -0.118413,-0.035929 -0.038646,-0.015996 -0.075335,-0.035673 -0.109563,-0.058539 -0.034701,-0.023181 -0.06685,-0.049559 -0.095941,-0.078658 -0.011055,-0.011055 -0.022039,-0.022965 -0.032866,-0.035654 -0.006835,-0.00802 -0.0135236,-0.016248 -0.0200354,-0.024685 l -2.3622e-4,1.85e-4 -0.0104606,-0.014339 -0.001472,-0.00202 -0.003063,0.0042 c -0.00952,0.012913 -0.0194843,0.025425 -0.0298307,0.037468 -0.0106024,0.012358 -0.0213622,0.023988 -0.0322126,0.034842 -0.0290945,0.029091 -0.0612402,0.055476 -0.0959409,0.078658 -0.0342283,0.022866 -0.0709213,0.042543 -0.109567,0.058539 -0.0378937,0.015697 -0.0775276,0.027819 -0.118406,0.035929 -0.0399685,0.00793 -0.0812047,0.012094 -0.123252,0.012094 -0.0420472,0 -0.0832835,-0.00417 -0.123252,-0.012094 C 0.2942565,2.6251505 0.2546226,2.6130284 0.2167253,2.5973316 0.1780836,2.5813355 0.1413907,2.5616584 0.1071623,2.5387922 0.0724615,2.5156111 0.0403237,2.4892331 0.0112214,2.4601347 0.00744187,2.4563513 0.00370171,2.4525088 -2.99948e-6,2.4486071 v 0.279618 C 0.0303907,2.747733 0.0622765,2.7654377 0.0954655,2.7811424 c 0.0354252,0.01676 0.072248,0.031165 0.110213,0.042984 0.0401339,0.012484 0.0817087,0.022102 0.124457,0.028547 0.0417244,0.0063 0.0845709,0.00957 0.12826,0.00957 0.0435512,0 0.0862362,-0.00324 0.127803,-0.00949 0.0426929,-0.00641 0.0841299,-0.015945 0.124051,-0.028311 z"
   inkscape:connector-curvature="0"
   style="fill:#fefefe;fill-rule:nonzero" />
  </g>
 </g>
</svg>