<?xml version="1.0" encoding="UTF-8"?>
<!DOCTYPE svg PUBLIC "-//W3C//DTD SVG 1.1//EN" "http://www.w3.org/Graphics/SVG/1.1/DTD/svg11.dtd">
<!-- Creator: CorelDRAW -->
<svg xmlns="http://www.w3.org/2000/svg" xml:space="preserve" width="3.98818in" height="0.772327in" style="shape-rendering:geometricPrecision; text-rendering:geometricPrecision; image-rendering:optimizeQuality; fill-rule:evenodd; clip-rule:evenodd"
viewBox="0 0 3.98818 0.772327"
 xmlns:xlink="http://www.w3.org/1999/xlink">
 <defs>
  <style type="text/css">
   <![CDATA[
    .fil0 {fill:#AB4038;fill-rule:nonzero}
    .fil1 {fill:white;fill-rule:nonzero}
   ]]>
  </style>
 </defs>
 <g id="Layer_x0020_1">
  <metadata id="CorelCorpID_0Corel-Layer"/>
  <g id="_221273952">
   <path id="_219430360" class="fil0" d="M0.949862 0.00496457c0.0183228,0.0204606 0.0379882,0.0433701 0.0587835,0.0674173 0.0184606,0.0213425 0.0353386,0.0386614 0.0554528,0.0608898 0.0124567,0.0137638 0.0291614,0.0323307 0.0421693,0.0458622 0.147323,0.153299 0.329024,0.221457 0.504756,0.164976 0.0499016,-0.0160394 0.0967559,-0.0390512 0.145472,-0.0752717 0.093374,-0.0694291 0.150697,-0.141437 0.217768,-0.23228l0.0127087 -0.0172677 0.014189 0.0162323c0.0102913,0.0118425 0.0209331,0.0241929 0.0318858,0.0368583 0.0184606,0.0213425 0.0353386,0.0386614 0.0554528,0.0608898 0.0124567,0.0137638 0.0291614,0.0323307 0.0421693,0.0458622 0.147323,0.153299 0.329024,0.221457 0.504756,0.164976 0.0499016,-0.0160394 0.0967559,-0.0390512 0.145472,-0.0752717 0.105559,-0.0784882 0.165035,-0.160268 0.244626,-0.268839l3.93701e-005 5.11811e-005 0 0.302114c-0.00158661,-0.00211811 -0.00316142,-0.00424409 -0.00472047,-0.00637795l-9.84252e-005 -0.000295276 -0.00133071 -0.00183465 -0.00309055 0.00422441c-0.00952756,0.0129331 -0.0195157,0.0254606 -0.0298543,0.0375079 -0.0105906,0.0123465 -0.0213465,0.0239685 -0.0321969,0.0348228l-3.14961e-005 -3.54331e-005c-0.0292087,0.0292047 -0.0613543,0.0556063 -0.0959094,0.078685 -0.0342283,0.0228661 -0.0709213,0.0425512 -0.109563,0.0585472 -0.0378976,0.0156969 -0.0775315,0.0278189 -0.118409,0.0359291 -0.0399685,0.0079252 -0.0812126,0.0120945 -0.12326,0.0120945 -0.0420472,0 -0.0832835,-0.00416929 -0.123252,-0.0120945 -0.0408858,-0.00811024 -0.0805197,-0.0202323 -0.118413,-0.0359291 -0.0386378,-0.0159961 -0.0753268,-0.0356732 -0.109551,-0.0585394 -0.0347087,-0.0231811 -0.0668465,-0.0495591 -0.0959449,-0.0786575 -0.0110551,-0.0110551 -0.0220394,-0.0229646 -0.0328661,-0.0356535 -0.00684252,-0.00801575 -0.0135236,-0.0162559 -0.0200354,-0.024685l-0.000259843 0.000200787 -0.010437 -0.0142874 -0.00135039 -0.0018622 -0.00320079 0.00436614 -6.69291e-005 7.08661e-005c-0.00952756,0.0129016 -0.0194409,0.0253543 -0.0296772,0.0372795 -0.0105354,0.0122717 -0.0212244,0.0238228 -0.0319685,0.0345709l-3.14961e-005 -3.54331e-005c-0.0292087,0.0292047 -0.0613543,0.0556063 -0.0959016,0.078685 -0.0342362,0.0228661 -0.0709291,0.0425512 -0.109571,0.0585472 -0.0378937,0.0156969 -0.0775315,0.0278189 -0.118409,0.0359291 -0.0399646,0.0079252 -0.0812087,0.0120945 -0.12326,0.0120945 -0.0420472,0 -0.0832913,-0.00416142 -0.123244,-0.0120945 -0.0408858,-0.00811024 -0.0805197,-0.0202323 -0.118413,-0.0359291 -0.0386457,-0.0159961 -0.0753346,-0.0356732 -0.109563,-0.0585394 -0.0347008,-0.0231811 -0.0668504,-0.0495591 -0.0959409,-0.0786575 -0.0110551,-0.0110551 -0.0220394,-0.0229646 -0.0328661,-0.0356535 -0.00683465,-0.00801575 -0.0135236,-0.016248 -0.0200354,-0.024685l-0.00023622 0.000185039 -0.0104606 -0.0143386 -0.00147244 -0.00202362 -0.00306299 0.00420472c-0.00575591,0.00780709 -0.0116772,0.0154724 -0.0177441,0.0229724l0 -0.315909z"/>
   <path id="_222537248" class="fil1" d="M0.710252 0.734528c0.0376339,-0.0116614 0.0742598,-0.0259449 0.109602,-0.0425827 0.0530866,-0.0250039 0.0939961,-0.0514055 0.140874,-0.0836496l0.00976378 -0.00670866 0.00972835 0.00670866 0.0209803 0.0144685c0.0349134,0.0240906 0.0718228,0.0456654 0.110417,0.0644409l6.69291e-005 0c0.0382362,0.0186063 0.0779409,0.0344094 0.118764,0.0470984l0.0079252 0.0024685c0.0375709,0.0112598 0.0764488,0.0199961 0.116409,0.0260197 0.0416732,0.00627559 0.0844606,0.00953543 0.128118,0.00953543 0.0435551,0 0.0862362,-0.00324409 0.127803,-0.00948819 0.0426929,-0.00641339 0.0841299,-0.0159449 0.124051,-0.028311 0.0376417,-0.0116614 0.0742598,-0.0259449 0.109602,-0.0425827 0.0356693,-0.0168031 0.0700591,-0.0360748 0.102909,-0.0575669l7.87402e-006 7.87402e-006 0.046689 -0.0332874 0.00991732 0.00683858 0.0218228 0.0150354c0.034937,0.0240787 0.0718504,0.0456575 0.110417,0.0644213 0.0381142,0.0185315 0.0777323,0.0342835 0.118563,0.0469646 0.0400079,0.0124213 0.0815433,0.0219961 0.124319,0.0284331 0.0416654,0.00627559 0.0844528,0.00953543 0.128094,0.00953543 0.0435512,0 0.0862362,-0.00324409 0.127803,-0.00948819 0.0426929,-0.00641339 0.0841299,-0.0159449 0.124051,-0.028311 0.0376339,-0.0116614 0.0742598,-0.0259449 0.109602,-0.0425827 0.0354409,-0.0166969 0.069622,-0.0358307 0.102283,-0.0571614l0.0347953 -0.0277913 0.00991732 -0.00791732 0.0105197 0.00725197 0.0238307 0.016437c0.0348465,0.0240433 0.0717913,0.0456417 0.110524,0.0645 0.0381614,0.0185709 0.077748,0.0343425 0.118433,0.0469882l0.000299213 5.11811e-005c0.0400433,0.0124331 0.0815945,0.0220276 0.124374,0.0284724 0.0416732,0.00628346 0.0844646,0.00955118 0.128083,0.00955118 0.0435512,0 0.0862323,-0.00324409 0.127803,-0.00948819 0.042689,-0.00641339 0.0841378,-0.0159449 0.124047,-0.028311 0.0376417,-0.0116614 0.0742638,-0.0259449 0.109606,-0.0425827 0.0328543,-0.0154764 0.0646299,-0.0330433 0.0951102,-0.0525197l0 -0.278831c-0.00315354,0.00329134 -0.00629134,0.00650394 -0.00940551,0.00961811 -0.0290906,0.0290906 -0.0612402,0.0554764 -0.0959331,0.0786575 -0.0342362,0.0228661 -0.0709291,0.0425433 -0.109563,0.0585394 -0.0378937,0.0156969 -0.0775276,0.0278189 -0.118406,0.0359291 -0.0399685,0.0079252 -0.0812126,0.0120945 -0.12326,0.0120945 -0.0420512,0 -0.0832874,-0.00416929 -0.123256,-0.0120945 -0.0408858,-0.00811024 -0.0805197,-0.0202323 -0.118413,-0.0359291 -0.0386417,-0.0159961 -0.0753346,-0.0356811 -0.109563,-0.0585472 -0.0345551,-0.0230787 -0.0667047,-0.0494803 -0.0959094,-0.078685l-3.14961e-005 3.54331e-005c-0.011185,-0.011185 -0.0222402,-0.0231693 -0.0330669,-0.0358386 -0.0106339,-0.0124291 -0.0208346,-0.025315 -0.0305315,-0.0385866l-9.84252e-005 -0.000295276 -0.00133071 -0.00183465 -0.00309055 0.00422441c-0.00952756,0.0129331 -0.0195157,0.0254606 -0.0298543,0.0375079 -0.0105906,0.0123465 -0.0213465,0.0239685 -0.0321969,0.0348228l-3.14961e-005 -3.54331e-005c-0.0292087,0.0292047 -0.0613543,0.0556063 -0.0959094,0.078685 -0.0342283,0.0228661 -0.0709213,0.0425512 -0.109563,0.0585472 -0.0378976,0.0156969 -0.0775315,0.0278189 -0.118409,0.0359291 -0.0399685,0.0079252 -0.0812126,0.0120945 -0.12326,0.0120945 -0.0420472,0 -0.0832835,-0.00416929 -0.123252,-0.0120945 -0.0408858,-0.00811024 -0.0805197,-0.0202323 -0.118413,-0.0359291 -0.0386378,-0.0159961 -0.0753268,-0.0356732 -0.109551,-0.0585394 -0.0347087,-0.0231811 -0.0668465,-0.0495591 -0.0959449,-0.0786575 -0.0110551,-0.0110551 -0.0220394,-0.0229646 -0.0328661,-0.0356535 -0.00684252,-0.00801575 -0.0135236,-0.0162559 -0.0200354,-0.024685l-0.000259843 0.000200787 -0.010437 -0.0142874 -0.00135039 -0.0018622 -0.00320079 0.00436614 -6.69291e-005 7.08661e-005c-0.00952756,0.0129016 -0.0194409,0.0253543 -0.0296772,0.0372795 -0.0105354,0.0122717 -0.0212244,0.0238228 -0.0319685,0.0345709l-3.14961e-005 -3.54331e-005c-0.0292087,0.0292047 -0.0613543,0.0556063 -0.0959016,0.078685 -0.0342362,0.0228661 -0.0709291,0.0425512 -0.109571,0.0585472 -0.0378937,0.0156969 -0.0775315,0.0278189 -0.118409,0.0359291 -0.0399646,0.0079252 -0.0812087,0.0120945 -0.12326,0.0120945 -0.0420472,0 -0.0832913,-0.00416142 -0.123244,-0.0120945 -0.0408858,-0.00811024 -0.0805197,-0.0202323 -0.118413,-0.0359291 -0.0386457,-0.0159961 -0.0753346,-0.0356732 -0.109563,-0.0585394 -0.0347008,-0.0231811 -0.0668504,-0.0495591 -0.0959409,-0.0786575 -0.0110551,-0.0110551 -0.0220394,-0.0229646 -0.0328661,-0.0356535 -0.00683465,-0.00801575 -0.0135236,-0.016248 -0.0200354,-0.024685l-0.00023622 0.000185039 -0.0104606 -0.0143386 -0.00147244 -0.00202362 -0.00306299 0.00420472c-0.00951969,0.0129134 -0.0194843,0.0254252 -0.0298307,0.0374685 -0.0106024,0.0123583 -0.0213622,0.0239882 -0.0322126,0.0348425 -0.0290945,0.0290906 -0.0612402,0.0554764 -0.0959409,0.0786575 -0.0342283,0.0228661 -0.0709213,0.0425433 -0.109567,0.0585394 -0.0378937,0.0156969 -0.0775276,0.0278189 -0.118406,0.0359291 -0.0399685,0.0079252 -0.0812047,0.0120945 -0.123252,0.0120945 -0.0420472,0 -0.0832835,-0.00416929 -0.123252,-0.0120945 -0.0408858,-0.00811024 -0.0805197,-0.0202323 -0.118417,-0.0359291 -0.0386417,-0.0159961 -0.0753346,-0.0356732 -0.109563,-0.0585394 -0.0347008,-0.0231811 -0.0668386,-0.0495591 -0.0959409,-0.0786575 -0.00377953,-0.00378346 -0.00751969,-0.00762598 -0.0112244,-0.0115276l0 0.279618c0.0303937,0.0195079 0.0622795,0.0372126 0.0954685,0.0529173 0.0354252,0.0167598 0.072248,0.0311654 0.110213,0.0429843 0.0401339,0.0124843 0.0817087,0.0221024 0.124457,0.0285472 0.0417244,0.00629921 0.0845709,0.0095748 0.12826,0.0095748 0.0435512,0 0.0862362,-0.00324409 0.127803,-0.00948819 0.0426929,-0.00641339 0.0841299,-0.0159449 0.124051,-0.028311z"/>
  </g>
 </g>
</svg>
